<svg xmlns="http://www.w3.org/2000/svg" width="102" height="133" fill="none" viewBox="0 0 102 133">
  <path fill="#000" d="M101.882 58.205c-.326-1.566-2.562-1.558-6.512-3.799-3.446-1.953-5.538-4.108-7.869-6.512-3.245-3.345-2.881-4.067-7.868-10.581-2.464-3.219-4.127-5.102-7.055-8.412-5.893-6.666-7.198-7.282-8.411-7.597-1.357-.35-3.177-.475-4.07-1.9-.507-.808-.695-2.002-.271-2.984.784-1.823 3.038-1.427 5.698-2.984 2.262-1.327 5.244-4.315 4.883-7.598-.36-3.283-3.858-5.052-4.07-5.155-2.08-1.015-4.083-.716-7.054-.271-1.576.236-3.305.494-5.155 1.356-1.186.554-2.933 1.59-9.768 10.04-1.652 2.043-2.79 3.513-4.884 4.07-.434.114-2.35.572-4.341-.272-3.53-1.498-3.066-5.288-7.597-10.582-2.776-3.242-4.372-3.478-4.884-3.527-2.497-.233-5.432 1.547-5.698 3.527-.255 1.9 2.116 2.71 3.256 6.784.428 1.527.64 2.29.271 2.984-1.077 2.019-5.139.204-10.582 1.628-1.639.429-6.788 1.777-8.954 6.24-1.888 3.892-.39 7.842-.27 8.14 1.453 3.66 4.978 5.698 7.325 7.055 2.653 1.533 4.016 1.587 5.698 3.527 1.072 1.238 1.283 2.098 2.713 3.256 1.332 1.08 3.57 2.293 4.341 1.628.904-.778-.57-3.834-.814-4.341-2.173-4.504-4.938-4.474-7.054-8.14-1.593-2.756-2.635-7.28-.543-9.496 1.951-2.068 5.75-1.2 6.24-1.086 3.1.711 4.942 2.933 6.513 4.884 3.359 4.173 2.2 5.769 5.426 9.768 2.689 3.335 4.396 3.346 4.884 5.698.57 2.738-1.123 5.67-2.984 7.326-2.277 2.024-4.98 2.287-10.04 2.713-6.788.57-9.529-.456-11.396 1.628-.96 1.072-1.6 2.868-1.085 4.341.784 2.244 3.742 2.301 10.853 4.884 4.526 1.645 6.816 2.497 8.14 4.07.874 1.04 1.688 2.518 2.17 10.582.503 8.395.72 12.641-1.084 14.923-2.02 2.556-3.525 1.289-7.869 5.155-2.276 2.027-4.371 4.605-5.698 6.241-1.94 2.39-2.9 3.88-5.155 5.155-.966.546-2.14 1.21-3.799 1.357-2.84.249-3.948-1.303-5.426-.543-1.406.722-2.111 3.006-1.628 4.613.39 1.302 1.335 1.416 2.713 3.527.66 1.009.993 1.829 1.357 2.713 1.902 4.643.656 6.499 2.442 8.683 1.226 1.5 3.348 2.507 4.34 1.899.59-.361.636-1.196.543-4.884-.13-5.171-.282-5.823 0-7.054.494-2.168 1.732-3.517 3.528-5.427 6.026-6.409 13.65-8.815 14.109-8.954 3.264-.99 4.705-.825 7.326-2.442 2.265-1.397 2.822-2.529 5.155-4.612 0 0 3.522-3.142 8.411-5.427 1.571-.735 2.996-1.21 12.753-2.713 0 0 5.117-.787 15.465-2.985 2.13-.453 4.746-1.044 6.784-3.256.425-.464 2.512-2.727 2.17-5.155-.306-2.179-2.43-3.514-8.14-6.24-10.858-5.186-16.288-7.78-20.35-8.683-3.424-.763-6.069-1.012-7.597-3.256-.578-.85-1.055-2.073-1.085-7.597-.016-3.261.141-4.412.271-7.869.274-7.212.41-10.818-.27-12.752-.758-2.152-2.085-4.426-1.086-5.698.464-.591 1.378-.906 1.9-1.085.412-.141 1.535-.527 2.712-.272 1.232.269 1.46 1.007 2.714 1.9 1.872 1.335 4.789 2.132 5.969 1.085.787-.697.385-1.845 1.085-2.17.934-.435 2.545 1.185 2.985 1.627 6.284 6.317 9.488 9.546 12.481 13.024 2.255 2.618 3.321 3.815 4.07 5.97.714 2.048.418 2.894 1.356 4.612 1.167 2.138 2.45 2.35 4.613 4.341 4.027 3.706 3.392 6.485 5.698 7.055 3.052.754 7.557-3.28 7.055-5.698ZM9.63 36.499c-.697.453-3.514-2.35-5.155-5.427-.787-1.473-1.447-2.757-1.086-4.341.505-2.204 2.578-3.194 2.714-3.256.434-.198 1.796-.825 2.442-.272.773.662-.22 2.385-.543 4.613-.708 4.881 2.377 8.197 1.628 8.683Zm42.598 38.257c7.785 2.602 13.461.347 14.38 2.713.432 1.11-.501 2.428-1.084 3.256-1.376 1.945-2.944 1.964-7.598 3.799-4.83 1.902-6.113 3.052-8.41 2.442-.481-.128-1.802-.478-2.714-1.628-1.191-1.5-.586-2.977-.814-6.241-.301-4.303-1.63-5.741-.814-6.512.971-.914 3.134.86 7.054 2.17Z"/>
</svg>
