<svg width="319" height="20" viewBox="0 0 319 20" fill="none" xmlns="http://www.w3.org/2000/svg">
<path d="M7.00117 19.3418C5.72513 19.3418 4.54024 19.1185 3.44649 18.6719C2.35274 18.2253 1.38659 17.5827 0.54805 16.7441L2.16133 14.8438C2.81758 15.5 3.56498 16.015 4.40352 16.3887C5.25117 16.7624 6.13529 16.9492 7.05586 16.9492C8.2043 16.9492 9.08386 16.7031 9.69453 16.2109C10.3052 15.7188 10.6105 15.0671 10.6105 14.2559C10.6105 13.6816 10.4738 13.2214 10.2004 12.875C9.92696 12.5195 9.56237 12.2188 9.10664 11.9727C8.65091 11.7266 8.13594 11.4759 7.56172 11.2207L5.00508 10.0996C4.42175 9.85352 3.84297 9.52083 3.26875 9.10156C2.70365 8.68229 2.23425 8.15365 1.86055 7.51562C1.49597 6.8776 1.31367 6.11198 1.31367 5.21875C1.31367 4.26172 1.56888 3.41862 2.0793 2.68945C2.59883 1.95117 3.30977 1.3724 4.21211 0.953125C5.12357 0.533854 6.15352 0.324219 7.30196 0.324219C8.38659 0.324219 9.40287 0.515625 10.3508 0.898438C11.2987 1.28125 12.1099 1.82357 12.7844 2.52539L11.3625 4.27539C10.7883 3.76497 10.1685 3.3776 9.50313 3.11328C8.84688 2.83984 8.10404 2.70312 7.27461 2.70312C6.31758 2.70312 5.54284 2.90365 4.95039 3.30469C4.36706 3.70573 4.07539 4.28451 4.07539 5.04102C4.07539 5.57878 4.22123 6.02995 4.51289 6.39453C4.80456 6.75911 5.17826 7.06901 5.63399 7.32422C6.08972 7.57031 6.55912 7.79818 7.04219 8.00781L9.59883 9.08789C10.3189 9.38867 10.966 9.75326 11.5402 10.1816C12.1145 10.61 12.5702 11.1341 12.9074 11.7539C13.2447 12.3737 13.4133 13.1348 13.4133 14.0371C13.4133 15.0124 13.1581 15.901 12.6477 16.7031C12.1372 17.5052 11.4035 18.1478 10.4465 18.6309C9.48946 19.1048 8.34102 19.3418 7.00117 19.3418ZM17.1703 19L23.2816 0.652344H26.4262L32.5375 19H29.6527L28.0258 13.6816H21.5727L19.9594 19H17.1703ZM22.2152 11.5078H27.3969L26.6039 8.95117C26.294 7.95768 25.9932 6.95052 25.7016 5.92969C25.419 4.90885 25.141 3.87891 24.8676 2.83984H24.7445C24.4802 3.87891 24.2022 4.90885 23.9105 5.92969C23.628 6.95052 23.3318 7.95768 23.0219 8.95117L22.2152 11.5078ZM37.6754 19V0.652344H40.4234V16.6758H48.2438V19H37.6754ZM54.1746 19V0.652344H56.9227V16.6758H64.743V19H54.1746ZM72.1777 19V12.0273L66.6543 0.652344H69.5938L71.7949 5.61523C72.0775 6.28971 72.3555 6.95508 72.6289 7.61133C72.9115 8.26758 73.2031 8.9375 73.5039 9.62109H73.627C73.9186 8.9375 74.2148 8.26758 74.5156 7.61133C74.8255 6.95508 75.1172 6.28971 75.3906 5.61523L77.5918 0.652344H80.4355L74.9121 12.0273V19H72.1777ZM94.0199 19V0.652344H99.7621C101.029 0.652344 102.132 0.79362 103.071 1.07617C104.019 1.34961 104.752 1.8099 105.272 2.45703C105.801 3.09505 106.065 3.97461 106.065 5.0957C106.065 5.98893 105.819 6.82292 105.327 7.59766C104.843 8.3724 104.028 8.88737 102.879 9.14258V9.25195C104.219 9.37044 105.254 9.80794 105.983 10.5645C106.712 11.3118 107.077 12.3145 107.077 13.5723C107.077 14.8027 106.785 15.819 106.202 16.6211C105.618 17.4232 104.807 18.0202 103.768 18.4121C102.729 18.804 101.535 19 100.186 19H94.0199ZM96.768 16.8535H99.8441C101.312 16.8535 102.433 16.5801 103.207 16.0332C103.991 15.4772 104.383 14.6068 104.383 13.4219C104.383 12.3555 104.01 11.5853 103.262 11.1113C102.515 10.6283 101.389 10.3867 99.8852 10.3867H96.768V16.8535ZM96.768 8.39062H99.3793C100.819 8.39062 101.845 8.13086 102.455 7.61133C103.066 7.0918 103.371 6.35352 103.371 5.39648C103.371 4.45768 103.062 3.79232 102.442 3.40039C101.822 2.99935 100.856 2.79883 99.5434 2.79883H96.768V8.39062ZM116.89 19.3418C114.502 19.3418 112.748 18.3346 111.627 16.3203L113.527 14.9395C113.946 15.6322 114.411 16.1426 114.921 16.4707C115.432 16.7897 115.997 16.9492 116.617 16.9492C117.546 16.9492 118.235 16.6803 118.681 16.1426C119.137 15.5957 119.365 14.6432 119.365 13.2852V0.652344H122.113V13.5449C122.113 14.6204 121.935 15.6003 121.58 16.4844C121.224 17.3594 120.659 18.0566 119.884 18.5762C119.119 19.0866 118.121 19.3418 116.89 19.3418ZM129.589 19V0.652344H140.362V2.96289H132.337V8.25391H139.118V10.5645H132.337V16.6758H140.649V19H129.589ZM147.154 19V0.652344H153.293C154.542 0.652344 155.645 0.811849 156.602 1.13086C157.559 1.44076 158.306 1.97852 158.844 2.74414C159.382 3.50065 159.65 4.54883 159.65 5.88867C159.65 7.37435 159.313 8.53646 158.639 9.375C157.964 10.2044 157.035 10.7878 155.85 11.125L160.279 19H157.176L153.074 11.5078H149.902V19H147.154ZM149.902 9.29297H152.91C154.268 9.29297 155.28 9.02865 155.945 8.5C156.611 7.96224 156.943 7.0918 156.943 5.88867C156.943 4.71289 156.615 3.91536 155.959 3.49609C155.303 3.06771 154.3 2.85352 152.951 2.85352H149.902V9.29297ZM166.361 19V0.652344H172.499C173.748 0.652344 174.851 0.811849 175.808 1.13086C176.765 1.44076 177.512 1.97852 178.05 2.74414C178.588 3.50065 178.857 4.54883 178.857 5.88867C178.857 7.37435 178.519 8.53646 177.845 9.375C177.17 10.2044 176.241 10.7878 175.056 11.125L179.486 19H176.382L172.28 11.5078H169.109V19H166.361ZM169.109 9.29297H172.116C173.474 9.29297 174.486 9.02865 175.152 8.5C175.817 7.96224 176.15 7.0918 176.15 5.88867C176.15 4.71289 175.821 3.91536 175.165 3.49609C174.509 3.06771 173.506 2.85352 172.157 2.85352H169.109V9.29297ZM185.567 19V0.652344H196.34V2.96289H188.315V8.25391H195.096V10.5645H188.315V16.6758H196.627V19H185.567ZM219.003 19.3418C217.389 19.3418 215.949 18.9863 214.682 18.2754C213.415 17.5645 212.417 16.5072 211.688 15.1035C210.968 13.6908 210.608 11.9499 210.608 9.88086C210.608 7.77539 210.982 6.01628 211.729 4.60352C212.477 3.19076 213.498 2.12435 214.792 1.4043C216.086 0.684245 217.558 0.324219 219.208 0.324219C220.457 0.324219 221.523 0.547526 222.407 0.994141C223.291 1.44076 224.016 1.95117 224.581 2.52539L223.022 4.24805C222.557 3.7832 222.029 3.40951 221.436 3.12695C220.853 2.8444 220.119 2.70312 219.235 2.70312C217.476 2.70312 216.068 3.3138 215.011 4.53516C213.962 5.7474 213.438 7.50651 213.438 9.8125C213.438 12.0911 213.94 13.8503 214.942 15.0898C215.945 16.3294 217.403 16.9492 219.317 16.9492C219.901 16.9492 220.466 16.8626 221.012 16.6895C221.568 16.5163 222.011 16.2793 222.339 15.9785V11.5625H218.716V9.30664H224.813V17.1953C224.203 17.7786 223.391 18.2845 222.38 18.7129C221.368 19.1322 220.242 19.3418 219.003 19.3418ZM229.309 19L235.42 0.652344H238.564L244.676 19H241.791L240.164 13.6816H233.711L232.098 19H229.309ZM234.354 11.5078H239.535L238.742 8.95117C238.432 7.95768 238.132 6.95052 237.84 5.92969C237.557 4.90885 237.279 3.87891 237.006 2.83984H236.883C236.618 3.87891 236.34 4.90885 236.049 5.92969C235.766 6.95052 235.47 7.95768 235.16 8.95117L234.354 11.5078ZM247.394 19L253.505 0.652344H256.65L262.761 19H259.876L258.249 13.6816H251.796L250.183 19H247.394ZM252.439 11.5078H257.62L256.827 8.95117C256.517 7.95768 256.217 6.95052 255.925 5.92969C255.642 4.90885 255.364 3.87891 255.091 2.83984H254.968C254.704 3.87891 254.426 4.90885 254.134 5.92969C253.851 6.95052 253.555 7.95768 253.245 8.95117L252.439 11.5078ZM267.899 19V0.652344H274.037C275.286 0.652344 276.389 0.811849 277.346 1.13086C278.303 1.44076 279.05 1.97852 279.588 2.74414C280.126 3.50065 280.395 4.54883 280.395 5.88867C280.395 7.37435 280.058 8.53646 279.383 9.375C278.709 10.2044 277.779 10.7878 276.594 11.125L281.024 19H277.92L273.819 11.5078H270.647V19H267.899ZM270.647 9.29297H273.655C275.013 9.29297 276.024 9.02865 276.69 8.5C277.355 7.96224 277.688 7.0918 277.688 5.88867C277.688 4.71289 277.36 3.91536 276.703 3.49609C276.047 3.06771 275.045 2.85352 273.696 2.85352H270.647V9.29297ZM287.105 19V0.652344H291.972C294.816 0.652344 296.963 1.40885 298.412 2.92188C299.87 4.42578 300.599 6.69531 300.599 9.73047C300.599 12.7292 299.861 15.026 298.384 16.6211C296.908 18.207 294.793 19 292.041 19H287.105ZM289.853 16.7715H291.713C293.727 16.7715 295.24 16.179 296.252 14.9941C297.272 13.8092 297.783 12.0547 297.783 9.73047C297.783 7.38802 297.291 5.66081 296.306 4.54883C295.331 3.43685 293.827 2.88086 291.795 2.88086H289.853V16.7715ZM307.186 19V0.652344H317.96V2.96289H309.934V8.25391H316.716V10.5645H309.934V16.6758H318.247V19H307.186Z" fill="black"/>
</svg>
