<svg width="455" height="28" viewBox="0 0 455 28" fill="none" xmlns="http://www.w3.org/2000/svg">
<path d="M10.1445 27.4883C8.32161 27.4883 6.62891 27.1693 5.06641 26.5312C3.50391 25.8932 2.1237 24.9753 0.925781 23.7773L3.23047 21.0625C4.16797 22 5.23568 22.7357 6.43359 23.2695C7.64453 23.8034 8.90755 24.0703 10.2227 24.0703C11.8633 24.0703 13.1198 23.7188 13.9922 23.0156C14.8646 22.3125 15.3008 21.3815 15.3008 20.2227C15.3008 19.4023 15.1055 18.7448 14.7148 18.25C14.3242 17.7422 13.8034 17.3125 13.1523 16.9609C12.5013 16.6094 11.7656 16.2513 10.9453 15.8867L7.29297 14.2852C6.45964 13.9336 5.63281 13.4583 4.8125 12.8594C4.00521 12.2604 3.33464 11.5052 2.80078 10.5938C2.27995 9.68229 2.01953 8.58854 2.01953 7.3125C2.01953 5.94531 2.38411 4.74089 3.11328 3.69922C3.85547 2.64453 4.87109 1.81771 6.16016 1.21875C7.46224 0.619792 8.93359 0.320312 10.5742 0.320312C12.1237 0.320312 13.5755 0.59375 14.9297 1.14062C16.2839 1.6875 17.4427 2.46224 18.4062 3.46484L16.375 5.96484C15.5547 5.23568 14.6693 4.68229 13.7188 4.30469C12.7812 3.91406 11.7201 3.71875 10.5352 3.71875C9.16797 3.71875 8.0612 4.00521 7.21484 4.57812C6.38151 5.15104 5.96484 5.97786 5.96484 7.05859C5.96484 7.82682 6.17318 8.47135 6.58984 8.99219C7.00651 9.51302 7.54036 9.95573 8.19141 10.3203C8.84245 10.6719 9.51302 10.9974 10.2031 11.2969L13.8555 12.8398C14.8841 13.2695 15.8086 13.7904 16.6289 14.4023C17.4492 15.0143 18.1003 15.763 18.582 16.6484C19.0638 17.5339 19.3047 18.6211 19.3047 19.9102C19.3047 21.3034 18.9401 22.5729 18.2109 23.7188C17.4818 24.8646 16.4336 25.7826 15.0664 26.4727C13.6992 27.1497 12.0586 27.4883 10.1445 27.4883ZM24.6719 27L33.4023 0.789062H37.8945L46.625 27H42.5039L40.1797 19.4023H30.9609L28.6562 27H24.6719ZM31.8789 16.2969H39.2812L38.1484 12.6445C37.7057 11.2253 37.276 9.78646 36.8594 8.32812C36.4557 6.86979 36.0586 5.39844 35.668 3.91406H35.4922C35.1146 5.39844 34.7174 6.86979 34.3008 8.32812C33.8971 9.78646 33.474 11.2253 33.0312 12.6445L31.8789 16.2969ZM53.9648 27V0.789062H57.8906V23.6797H69.0625V27H53.9648ZM77.5352 27V0.789062H81.4609V23.6797H92.6328V27H77.5352ZM103.254 27V17.0391L95.3633 0.789062H99.5625L102.707 7.87891C103.111 8.84245 103.508 9.79297 103.898 10.7305C104.302 11.668 104.719 12.625 105.148 13.6016H105.324C105.741 12.625 106.164 11.668 106.594 10.7305C107.036 9.79297 107.453 8.84245 107.844 7.87891L110.988 0.789062H115.051L107.16 17.0391V27H103.254ZM134.457 27V0.789062H142.66C144.47 0.789062 146.046 0.990885 147.387 1.39453C148.741 1.78516 149.789 2.44271 150.531 3.36719C151.286 4.27865 151.664 5.53516 151.664 7.13672C151.664 8.41276 151.312 9.60417 150.609 10.7109C149.919 11.8177 148.754 12.5534 147.113 12.918V13.0742C149.027 13.2435 150.505 13.8685 151.547 14.9492C152.589 16.0169 153.109 17.4492 153.109 19.2461C153.109 21.0039 152.693 22.4557 151.859 23.6016C151.026 24.7474 149.867 25.6003 148.383 26.1602C146.898 26.7201 145.193 27 143.266 27H134.457ZM138.383 23.9336H142.777C144.874 23.9336 146.475 23.543 147.582 22.7617C148.702 21.9674 149.262 20.724 149.262 19.0312C149.262 17.5078 148.728 16.4076 147.66 15.7305C146.592 15.0404 144.984 14.6953 142.836 14.6953H138.383V23.9336ZM138.383 11.8438H142.113C144.171 11.8438 145.635 11.4727 146.508 10.7305C147.38 9.98828 147.816 8.93359 147.816 7.56641C147.816 6.22526 147.374 5.27474 146.488 4.71484C145.603 4.14193 144.223 3.85547 142.348 3.85547H138.383V11.8438ZM167.129 27.4883C163.717 27.4883 161.211 26.0495 159.609 23.1719L162.324 21.1992C162.923 22.1888 163.587 22.918 164.316 23.3867C165.046 23.8424 165.853 24.0703 166.738 24.0703C168.066 24.0703 169.049 23.6862 169.688 22.918C170.339 22.1367 170.664 20.776 170.664 18.8359V0.789062H174.59V19.207C174.59 20.7435 174.336 22.1432 173.828 23.4062C173.32 24.6562 172.513 25.6523 171.406 26.3945C170.312 27.1237 168.887 27.4883 167.129 27.4883ZM185.27 27V0.789062H200.66V4.08984H189.195V11.6484H198.883V14.9492H189.195V23.6797H201.07V27H185.27ZM210.363 27V0.789062H219.133C220.917 0.789062 222.492 1.01693 223.859 1.47266C225.227 1.91536 226.294 2.68359 227.062 3.77734C227.831 4.85807 228.215 6.35547 228.215 8.26953C228.215 10.3919 227.733 12.0521 226.77 13.25C225.806 14.4349 224.478 15.2682 222.785 15.75L229.113 27H224.68L218.82 16.2969H214.289V27H210.363ZM214.289 13.1328H218.586C220.526 13.1328 221.971 12.7552 222.922 12C223.872 11.2318 224.348 9.98828 224.348 8.26953C224.348 6.58984 223.879 5.45052 222.941 4.85156C222.004 4.23958 220.572 3.93359 218.645 3.93359H214.289V13.1328ZM237.801 27V0.789062H246.57C248.354 0.789062 249.93 1.01693 251.297 1.47266C252.664 1.91536 253.732 2.68359 254.5 3.77734C255.268 4.85807 255.652 6.35547 255.652 8.26953C255.652 10.3919 255.171 12.0521 254.207 13.25C253.243 14.4349 251.915 15.2682 250.223 15.75L256.551 27H252.117L246.258 16.2969H241.727V27H237.801ZM241.727 13.1328H246.023C247.964 13.1328 249.409 12.7552 250.359 12C251.31 11.2318 251.785 9.98828 251.785 8.26953C251.785 6.58984 251.316 5.45052 250.379 4.85156C249.441 4.23958 248.009 3.93359 246.082 3.93359H241.727V13.1328ZM265.238 27V0.789062H280.629V4.08984H269.164V11.6484H278.852V14.9492H269.164V23.6797H281.039V27H265.238ZM313.004 27.4883C310.699 27.4883 308.642 26.9805 306.832 25.9648C305.022 24.9492 303.596 23.4388 302.555 21.4336C301.526 19.4154 301.012 16.9284 301.012 13.9727C301.012 10.9648 301.546 8.45182 302.613 6.43359C303.681 4.41536 305.139 2.89193 306.988 1.86328C308.837 0.834635 310.94 0.320312 313.297 0.320312C315.081 0.320312 316.604 0.639323 317.867 1.27734C319.13 1.91536 320.165 2.64453 320.973 3.46484L318.746 5.92578C318.082 5.26172 317.327 4.72786 316.48 4.32422C315.647 3.92057 314.599 3.71875 313.336 3.71875C310.823 3.71875 308.811 4.59115 307.301 6.33594C305.803 8.06771 305.055 10.5807 305.055 13.875C305.055 17.1302 305.771 19.6432 307.203 21.4141C308.635 23.1849 310.719 24.0703 313.453 24.0703C314.286 24.0703 315.094 23.9466 315.875 23.6992C316.669 23.4518 317.301 23.1133 317.77 22.6836V16.375H312.594V13.1523H321.305V24.4219C320.432 25.2552 319.273 25.9779 317.828 26.5898C316.383 27.1888 314.775 27.4883 313.004 27.4883ZM327.727 27L336.457 0.789062H340.949L349.68 27H345.559L343.234 19.4023H334.016L331.711 27H327.727ZM334.934 16.2969H342.336L341.203 12.6445C340.76 11.2253 340.331 9.78646 339.914 8.32812C339.51 6.86979 339.113 5.39844 338.723 3.91406H338.547C338.169 5.39844 337.772 6.86979 337.355 8.32812C336.952 9.78646 336.529 11.2253 336.086 12.6445L334.934 16.2969ZM353.562 27L362.293 0.789062H366.785L375.516 27H371.395L369.07 19.4023H359.852L357.547 27H353.562ZM360.77 16.2969H368.172L367.039 12.6445C366.596 11.2253 366.167 9.78646 365.75 8.32812C365.346 6.86979 364.949 5.39844 364.559 3.91406H364.383C364.005 5.39844 363.608 6.86979 363.191 8.32812C362.788 9.78646 362.365 11.2253 361.922 12.6445L360.77 16.2969ZM382.855 27V0.789062H391.625C393.409 0.789062 394.984 1.01693 396.352 1.47266C397.719 1.91536 398.786 2.68359 399.555 3.77734C400.323 4.85807 400.707 6.35547 400.707 8.26953C400.707 10.3919 400.225 12.0521 399.262 13.25C398.298 14.4349 396.97 15.2682 395.277 15.75L401.605 27H397.172L391.312 16.2969H386.781V27H382.855ZM386.781 13.1328H391.078C393.018 13.1328 394.464 12.7552 395.414 12C396.365 11.2318 396.84 9.98828 396.84 8.26953C396.84 6.58984 396.371 5.45052 395.434 4.85156C394.496 4.23958 393.064 3.93359 391.137 3.93359H386.781V13.1328ZM410.293 27V0.789062H417.246C421.309 0.789062 424.375 1.86979 426.445 4.03125C428.529 6.17969 429.57 9.42188 429.57 13.7578C429.57 18.0417 428.516 21.3229 426.406 23.6016C424.297 25.8672 421.276 27 417.344 27H410.293ZM414.219 23.8164H416.875C419.753 23.8164 421.914 22.9701 423.359 21.2773C424.818 19.5846 425.547 17.0781 425.547 13.7578C425.547 10.4115 424.844 7.94401 423.438 6.35547C422.044 4.76693 419.896 3.97266 416.992 3.97266H414.219V23.8164ZM438.98 27V0.789062H454.371V4.08984H442.906V11.6484H452.594V14.9492H442.906V23.6797H454.781V27H438.98Z" fill="black"/>
</svg>
